<svg width="124" height="40" viewBox="0 0 124 40" fill="none" xmlns="http://www.w3.org/2000/svg">
<mask id="mask0_6_47" style="mask-type:luminance" maskUnits="userSpaceOnUse" x="0" y="0" width="40" height="40">
<path d="M40 0H0V40H40V0Z" fill="white"/>
</mask>
<g mask="url(#mask0_6_47)">
<path fill-rule="evenodd" clip-rule="evenodd" d="M25.5557 11.6853C23.9112 10.5865 21.9778 10 20 10V0C23.9556 0 27.8224 1.17298 31.1114 3.37061C34.4004 5.56823 36.9638 8.69181 38.4776 12.3463C39.9913 16.0008 40.3874 20.0222 39.6157 23.9018C38.844 27.7814 36.9392 31.3451 34.1421 34.1421C31.3451 36.9392 27.7814 38.844 23.9018 39.6157C20.0222 40.3874 16.0008 39.9913 12.3463 38.4776C8.69181 36.9638 5.56823 34.4004 3.37061 31.1114C1.17298 27.8224 0 23.9556 0 20H10C10 21.9778 10.5865 23.9112 11.6853 25.5557C12.7841 27.2002 14.3459 28.4819 16.1732 29.2388C18.0004 29.9957 20.0111 30.1937 21.9509 29.8078C23.8907 29.422 25.6725 28.4696 27.0711 27.0711C28.4696 25.6725 29.422 23.8907 29.8078 21.9509C30.1937 20.0111 29.9957 18.0004 29.2388 16.1732C28.4819 14.3459 27.2002 12.7841 25.5557 11.6853Z" fill="#0268FB"/>
<path fill-rule="evenodd" clip-rule="evenodd" d="M10 4.33125e-06C10 1.31322 9.74135 2.61358 9.2388 3.82683C8.73625 5.04009 7.99965 6.14248 7.07106 7.07107C6.14249 7.99966 5.04009 8.73625 3.82683 9.2388C2.61357 9.74134 1.31322 10 4.3711e-07 10L0 20C2.62644 20 5.22715 19.4827 7.65368 18.4776C10.0802 17.4725 12.285 15.9993 14.1421 14.1421C15.9993 12.285 17.4725 10.0802 18.4776 7.65367C19.4827 5.22715 20 2.62643 20 0L10 4.33125e-06Z" fill="#0268FB"/>
</g>
<path d="M52.66 24.36H57.14V27H49.24V12.96H52.66V24.36ZM69.2912 21.24C69.2912 21.56 69.2713 21.8933 69.2313 22.24H61.4913C61.5446 22.9333 61.7646 23.4667 62.1513 23.84C62.5513 24.2 63.0379 24.38 63.6113 24.38C64.4646 24.38 65.0579 24.02 65.3913 23.3H69.0313C68.8446 24.0333 68.5046 24.6933 68.0113 25.28C67.5313 25.8667 66.9246 26.3267 66.1913 26.66C65.4579 26.9933 64.6379 27.16 63.7313 27.16C62.6379 27.16 61.6646 26.9267 60.8113 26.46C59.9579 25.9933 59.2913 25.3267 58.8113 24.46C58.3313 23.5933 58.0913 22.58 58.0913 21.42C58.0913 20.26 58.3246 19.2467 58.7913 18.38C59.2713 17.5133 59.9379 16.8467 60.7913 16.38C61.6446 15.9133 62.6246 15.68 63.7313 15.68C64.8113 15.68 65.7713 15.9067 66.6113 16.36C67.4513 16.8133 68.1046 17.46 68.5713 18.3C69.0513 19.14 69.2912 20.12 69.2912 21.24ZM65.7913 20.34C65.7913 19.7533 65.5913 19.2867 65.1913 18.94C64.7913 18.5933 64.2913 18.42 63.6913 18.42C63.1179 18.42 62.6313 18.5867 62.2313 18.92C61.8446 19.2533 61.6046 19.7267 61.5113 20.34H65.7913ZM70.4155 21.4C70.4155 20.2533 70.6288 19.2467 71.0555 18.38C71.4955 17.5133 72.0888 16.8467 72.8355 16.38C73.5821 15.9133 74.4155 15.68 75.3355 15.68C76.1221 15.68 76.8088 15.84 77.3955 16.16C77.9955 16.48 78.4555 16.9 78.7755 17.42V15.84H82.1955V27H78.7755V25.42C78.4421 25.94 77.9755 26.36 77.3755 26.68C76.7888 27 76.1021 27.16 75.3155 27.16C74.4088 27.16 73.5821 26.9267 72.8355 26.46C72.0888 25.98 71.4955 25.3067 71.0555 24.44C70.6288 23.56 70.4155 22.5467 70.4155 21.4ZM78.7755 21.42C78.7755 20.5667 78.5355 19.8933 78.0555 19.4C77.5888 18.9067 77.0155 18.66 76.3355 18.66C75.6555 18.66 75.0755 18.9067 74.5955 19.4C74.1288 19.88 73.8955 20.5467 73.8955 21.4C73.8955 22.2533 74.1288 22.9333 74.5955 23.44C75.0755 23.9333 75.6555 24.18 76.3355 24.18C77.0155 24.18 77.5888 23.9333 78.0555 23.44C78.5355 22.9467 78.7755 22.2733 78.7755 21.42ZM88.0897 17.7C88.4897 17.0867 88.9897 16.6067 89.5897 16.26C90.1897 15.9 90.8564 15.72 91.5897 15.72V19.34H90.6497C89.7964 19.34 89.1564 19.5267 88.7297 19.9C88.303 20.26 88.0897 20.9 88.0897 21.82V27H84.6697V15.84H88.0897V17.7ZM100.024 15.72C101.331 15.72 102.371 16.1467 103.144 17C103.931 17.84 104.324 19 104.324 20.48V27H100.924V20.94C100.924 20.1933 100.731 19.6133 100.344 19.2C99.9577 18.7867 99.4377 18.58 98.7844 18.58C98.131 18.58 97.611 18.7867 97.2244 19.2C96.8377 19.6133 96.6444 20.1933 96.6444 20.94V27H93.2244V15.84H96.6444V17.32C96.991 16.8267 97.4577 16.44 98.0444 16.16C98.631 15.8667 99.291 15.72 100.024 15.72ZM108.421 14.68C107.821 14.68 107.328 14.5067 106.941 14.16C106.568 13.8 106.381 13.36 106.381 12.84C106.381 12.3067 106.568 11.8667 106.941 11.52C107.328 11.16 107.821 10.98 108.421 10.98C109.008 10.98 109.488 11.16 109.861 11.52C110.248 11.8667 110.441 12.3067 110.441 12.84C110.441 13.36 110.248 13.8 109.861 14.16C109.488 14.5067 109.008 14.68 108.421 14.68ZM110.121 15.84V27H106.701V15.84H110.121ZM119.199 27L117.059 23.9L115.259 27H111.559L115.239 21.3L111.459 15.84H115.299L117.439 18.92L119.239 15.84H122.939L119.199 21.46L123.039 27H119.199Z" fill="#09093C"/>
</svg>
